<?xml version="1.0" encoding="UTF-8"?>
<!DOCTYPE svg PUBLIC "-//W3C//DTD SVG 1.1//EN" "http://www.w3.org/Graphics/SVG/1.1/DTD/svg11.dtd">
<svg xmlns="http://www.w3.org/2000/svg" version="1.1" width="50px" height="50px" style="shape-rendering:geometricPrecision; text-rendering:geometricPrecision; image-rendering:optimizeQuality; fill-rule:evenodd; clip-rule:evenodd" xmlns:xlink="http://www.w3.org/1999/xlink">
<g><path style="opacity:1" fill="#1571d4" d="M 7.5,-0.5 C 9.83333,-0.5 12.1667,-0.5 14.5,-0.5C 13.4489,0.222348 12.7822,1.22235 12.5,2.5C 11.1434,3.68539 9.64341,4.68539 8,5.5C 6.25089,5.25169 5.41755,4.25169 5.5,2.5C 7.04814,2.17876 7.71481,1.17876 7.5,-0.5 Z"/></g>
<g><path style="opacity:1" fill="#1b6fc9" d="M 14.5,-0.5 C 17.1667,-0.5 19.8333,-0.5 22.5,-0.5C 20.2247,0.837338 17.8914,2.17067 15.5,3.5C 15.1583,2.66175 14.4916,2.32842 13.5,2.5C 13.1667,2.5 12.8333,2.5 12.5,2.5C 12.7822,1.22235 13.4489,0.222348 14.5,-0.5 Z"/></g>
<g><path style="opacity:1" fill="#c8def7" d="M 28.5,-0.5 C 30.5,-0.5 32.5,-0.5 34.5,-0.5C 34.5,0.833333 34.5,2.16667 34.5,3.5C 34.1667,3.5 33.8333,3.5 33.5,3.5C 31.4487,0.852881 29.4487,0.852881 27.5,3.5C 25.2729,4.40058 24.2729,6.06725 24.5,8.5C 23.596,7.79105 23.2627,6.79105 23.5,5.5C 25.1667,3.5 26.8333,1.5 28.5,-0.5 Z"/></g>
<g><path style="opacity:1" fill="#3d87d1" d="M 36.5,-0.5 C 38.8333,-0.5 41.1667,-0.5 43.5,-0.5C 43.0825,0.221579 42.4158,0.721579 41.5,1C 42.7119,2.10682 42.3786,2.60682 40.5,2.5C 39.1283,1.48837 37.795,0.488369 36.5,-0.5 Z"/></g>
<g><path style="opacity:1" fill="#317dc9" d="M 2.5,-0.5 C 4.16667,-0.5 5.83333,-0.5 7.5,-0.5C 7.71481,1.17876 7.04814,2.17876 5.5,2.5C 5.16667,2.5 4.83333,2.5 4.5,2.5C 3.39105,2.55688 2.39105,2.89022 1.5,3.5C 1.43255,2.04125 1.76589,0.707917 2.5,-0.5 Z"/></g>
<g><path style="opacity:1" fill="#3a83d1" d="M 22.5,-0.5 C 23.1667,-0.5 23.8333,-0.5 24.5,-0.5C 22.6896,3.3108 19.6896,4.97747 15.5,4.5C 15.5,4.16667 15.5,3.83333 15.5,3.5C 17.8914,2.17067 20.2247,0.837338 22.5,-0.5 Z"/></g>
<g><path style="opacity:1" fill="#e0effa" d="M 33.5,3.5 C 33.5,5.5 33.5,7.5 33.5,9.5C 30.8333,9.5 28.1667,9.5 25.5,9.5C 24.8333,9.5 24.5,9.16667 24.5,8.5C 25.8333,8.5 27.1667,8.5 28.5,8.5C 29.8333,8.5 31.1667,8.5 32.5,8.5C 33.2436,5.05044 31.9103,3.38377 28.5,3.5C 28.1667,3.5 27.8333,3.5 27.5,3.5C 29.4487,0.852881 31.4487,0.852881 33.5,3.5 Z"/></g>
<g><path style="opacity:1" fill="#8cb4dd" d="M 34.5,-0.5 C 34.8333,-0.5 35.1667,-0.5 35.5,-0.5C 35.7376,1.40435 36.7376,2.73769 38.5,3.5C 38.8844,5.92937 39.551,8.26271 40.5,10.5C 39.391,10.4431 38.391,10.1098 37.5,9.5C 37.9465,6.98989 37.2798,4.98989 35.5,3.5C 35.1667,3.5 34.8333,3.5 34.5,3.5C 34.5,2.16667 34.5,0.833333 34.5,-0.5 Z"/></g>
<g><path style="opacity:1" fill="#5893d0" d="M 35.5,-0.5 C 35.8333,-0.5 36.1667,-0.5 36.5,-0.5C 37.795,0.488369 39.1283,1.48837 40.5,2.5C 41.1098,3.39105 41.4431,4.39105 41.5,5.5C 40.5,4.83333 39.5,4.16667 38.5,3.5C 36.7376,2.73769 35.7376,1.40435 35.5,-0.5 Z"/></g>
<g><path style="opacity:1" fill="#2770be" d="M 49.5,0.5 C 49.5,1.16667 49.5,1.83333 49.5,2.5C 47.8828,3.038 46.2161,3.37133 44.5,3.5C 44.5,3.16667 44.5,2.83333 44.5,2.5C 45.7791,1.03201 47.4458,0.365341 49.5,0.5 Z"/></g>
<g><path style="opacity:1" fill="#298cde" d="M -0.5,-0.5 C 0.5,-0.5 1.5,-0.5 2.5,-0.5C 1.76589,0.707917 1.43255,2.04125 1.5,3.5C 0.765886,4.70792 0.432553,6.04125 0.5,7.5C 1.68566,8.96126 1.68566,10.2946 0.5,11.5C 0.166667,11.5 -0.166667,11.5 -0.5,11.5C -0.5,7.5 -0.5,3.5 -0.5,-0.5 Z"/></g>
<g><path style="opacity:1" fill="#68a0dc" d="M 24.5,-0.5 C 25.1667,-0.5 25.8333,-0.5 26.5,-0.5C 24.8333,1.83333 22.8333,3.83333 20.5,5.5C 18.5853,5.21552 16.9187,5.54885 15.5,6.5C 13.0673,6.2144 13.0673,5.54773 15.5,4.5C 19.6896,4.97747 22.6896,3.3108 24.5,-0.5 Z"/></g>
<g><path style="opacity:1" fill="#1f72c9" d="M 4.5,2.5 C 4.83333,2.5 5.16667,2.5 5.5,2.5C 5.41755,4.25169 6.25089,5.25169 8,5.5C 9.64341,4.68539 11.1434,3.68539 12.5,2.5C 12.8333,2.5 13.1667,2.5 13.5,2.5C 12.145,5.51767 9.81163,6.851 6.5,6.5C 5.83333,6.5 5.16667,6.5 4.5,6.5C 4.16667,6.5 3.83333,6.5 3.5,6.5C 3.43255,5.04125 3.76589,3.70792 4.5,2.5 Z"/></g>
<g><path style="opacity:1" fill="#3979ba" d="M 13.5,2.5 C 14.4916,2.32842 15.1583,2.66175 15.5,3.5C 15.5,3.83333 15.5,4.16667 15.5,4.5C 13.0673,5.54773 13.0673,6.2144 15.5,6.5C 15.5,7.16667 15.1667,7.5 14.5,7.5C 12.1582,8.21068 11.8249,9.54402 13.5,11.5C 11.5168,10.5294 9.5168,9.52939 7.5,8.5C 7.16667,7.83333 6.83333,7.16667 6.5,6.5C 9.81163,6.851 12.145,5.51767 13.5,2.5 Z"/></g>
<g><path style="opacity:1" fill="#4990d9" d="M 43.5,-0.5 C 45.5,-0.5 47.5,-0.5 49.5,-0.5C 49.5,-0.166667 49.5,0.166667 49.5,0.5C 47.4458,0.365341 45.7791,1.03201 44.5,2.5C 43.1667,4.5 43.1667,6.5 44.5,8.5C 44.5,8.83333 44.5,9.16667 44.5,9.5C 42.0882,9.30592 41.0882,7.97259 41.5,5.5C 41.4431,4.39105 41.1098,3.39105 40.5,2.5C 42.3786,2.60682 42.7119,2.10682 41.5,1C 42.4158,0.721579 43.0825,0.221579 43.5,-0.5 Z"/></g>
<g><path style="opacity:1" fill="#1e71bf" d="M 4.5,2.5 C 3.76589,3.70792 3.43255,5.04125 3.5,6.5C 3.63101,7.23891 3.46434,7.90558 3,8.5C 2.66667,7.5 2.33333,6.5 2,5.5C 1.72158,6.4158 1.22158,7.08247 0.5,7.5C 0.432553,6.04125 0.765886,4.70792 1.5,3.5C 2.39105,2.89022 3.39105,2.55688 4.5,2.5 Z"/></g>
<g><path style="opacity:1" fill="#ececf3" d="M 27.5,3.5 C 27.8333,3.5 28.1667,3.5 28.5,3.5C 28.5,5.16667 28.5,6.83333 28.5,8.5C 27.1667,8.5 25.8333,8.5 24.5,8.5C 24.2729,6.06725 25.2729,4.40058 27.5,3.5 Z"/></g>
<g><path style="opacity:1" fill="#eef7fc" d="M 28.5,3.5 C 31.9103,3.38377 33.2436,5.05044 32.5,8.5C 31.1667,8.5 29.8333,8.5 28.5,8.5C 28.5,6.83333 28.5,5.16667 28.5,3.5 Z"/></g>
<g><path style="opacity:1" fill="#337fd0" d="M 44.5,2.5 C 44.5,2.83333 44.5,3.16667 44.5,3.5C 44.9175,4.22158 45.5842,4.72158 46.5,5C 45.7476,5.67076 45.4142,6.5041 45.5,7.5C 45.5,8.16667 45.1667,8.5 44.5,8.5C 43.1667,6.5 43.1667,4.5 44.5,2.5 Z"/></g>
<g><path style="opacity:1" fill="#1c71c9" d="M 49.5,2.5 C 49.5,3.83333 49.5,5.16667 49.5,6.5C 48.1667,6.83333 46.8333,7.16667 45.5,7.5C 45.4142,6.5041 45.7476,5.67076 46.5,5C 45.5842,4.72158 44.9175,4.22158 44.5,3.5C 46.2161,3.37133 47.8828,3.038 49.5,2.5 Z"/></g>
<g><path style="opacity:1" fill="#7cb4ed" d="M 20.5,5.5 C 20.5,6.16667 20.5,6.83333 20.5,7.5C 18.7085,7.36596 17.0418,7.69929 15.5,8.5C 14.8333,8.5 14.5,8.16667 14.5,7.5C 15.1667,7.5 15.5,7.16667 15.5,6.5C 16.9187,5.54885 18.5853,5.21552 20.5,5.5 Z"/></g>
<g><path style="opacity:1" fill="#b3cfea" d="M 23.5,5.5 C 23.2627,6.79105 23.596,7.79105 24.5,8.5C 24.5,9.16667 24.8333,9.5 25.5,9.5C 26.209,10.404 27.209,10.7373 28.5,10.5C 29.3065,11.7281 30.3065,12.7281 31.5,13.5C 29.0347,13.233 26.7014,12.5664 24.5,11.5C 22.5252,9.63805 22.1919,7.63805 23.5,5.5 Z"/></g>
<g><path style="opacity:1" fill="#62a0da" d="M 38.5,3.5 C 39.5,4.16667 40.5,4.83333 41.5,5.5C 41.0882,7.97259 42.0882,9.30592 44.5,9.5C 45.8195,10.9418 47.4862,11.6085 49.5,11.5C 49.5,11.8333 49.5,12.1667 49.5,12.5C 46.4359,12.0725 43.4359,11.4058 40.5,10.5C 39.551,8.26271 38.8844,5.92937 38.5,3.5 Z"/></g>
<g><path style="opacity:1" fill="#add5f7" d="M 4.5,6.5 C 5.16667,6.5 5.83333,6.5 6.5,6.5C 6.83333,7.16667 7.16667,7.83333 7.5,8.5C 7.5,8.83333 7.5,9.16667 7.5,9.5C 6.31434,10.7054 6.31434,12.0387 7.5,13.5C 6.66175,13.8417 6.32842,14.5084 6.5,15.5C 6.16667,15.5 5.83333,15.5 5.5,15.5C 5.76781,13.901 5.43448,12.5676 4.5,11.5C 4.5,9.83333 4.5,8.16667 4.5,6.5 Z"/></g>
<g><path style="opacity:1" fill="#8fc0ee" d="M 20.5,7.5 C 20.4326,8.95875 20.7659,10.2921 21.5,11.5C 20.5,11.5 19.5,11.5 18.5,11.5C 17.5,10.8333 16.5,10.1667 15.5,9.5C 15.5,9.16667 15.5,8.83333 15.5,8.5C 17.0418,7.69929 18.7085,7.36596 20.5,7.5 Z"/></g>
<g><path style="opacity:1" fill="#a0c6ed" d="M 26.5,-0.5 C 27.1667,-0.5 27.8333,-0.5 28.5,-0.5C 26.8333,1.5 25.1667,3.5 23.5,5.5C 22.1919,7.63805 22.5252,9.63805 24.5,11.5C 23.5,11.5 22.5,11.5 21.5,11.5C 20.7659,10.2921 20.4326,8.95875 20.5,7.5C 20.5,6.83333 20.5,6.16667 20.5,5.5C 22.8333,3.83333 24.8333,1.83333 26.5,-0.5 Z"/></g>
<g><path style="opacity:1" fill="#2c85d6" d="M 49.5,6.5 C 49.5,8.16667 49.5,9.83333 49.5,11.5C 47.4862,11.6085 45.8195,10.9418 44.5,9.5C 44.5,9.16667 44.5,8.83333 44.5,8.5C 45.1667,8.5 45.5,8.16667 45.5,7.5C 46.8333,7.16667 48.1667,6.83333 49.5,6.5 Z"/></g>
<g><path style="opacity:1" fill="#3693e1" d="M 14.5,7.5 C 14.5,8.16667 14.8333,8.5 15.5,8.5C 15.5,8.83333 15.5,9.16667 15.5,9.5C 15.4431,10.609 15.1098,11.609 14.5,12.5C 13.8333,12.5 13.5,12.1667 13.5,11.5C 11.8249,9.54402 12.1582,8.21068 14.5,7.5 Z"/></g>
<g><path style="opacity:1" fill="#c8ddee" d="M 33.5,3.5 C 33.8333,3.5 34.1667,3.5 34.5,3.5C 34.8333,3.5 35.1667,3.5 35.5,3.5C 36.6414,5.54868 36.6414,7.54868 35.5,9.5C 34.8333,9.5 34.5,9.83333 34.5,10.5C 32.5,10.5 30.5,10.5 28.5,10.5C 27.209,10.7373 26.209,10.404 25.5,9.5C 28.1667,9.5 30.8333,9.5 33.5,9.5C 33.5,7.5 33.5,5.5 33.5,3.5 Z"/></g>
<g><path style="opacity:1" fill="#99b7d2" d="M 35.5,3.5 C 37.2798,4.98989 37.9465,6.98989 37.5,9.5C 37.5,10.1667 37.5,10.8333 37.5,11.5C 37.1667,11.5 36.8333,11.5 36.5,11.5C 35.6618,11.1583 35.3284,10.4916 35.5,9.5C 36.6414,7.54868 36.6414,5.54868 35.5,3.5 Z"/></g>
<g><path style="opacity:1" fill="#90bade" d="M 15.5,9.5 C 16.5,10.1667 17.5,10.8333 18.5,11.5C 18.5,12.1667 18.5,12.8333 18.5,13.5C 18.5,14.1667 18.5,14.8333 18.5,15.5C 17.7777,14.4489 16.7777,13.7822 15.5,13.5C 15.1667,13.5 14.8333,13.5 14.5,13.5C 14.5,13.1667 14.5,12.8333 14.5,12.5C 15.1098,11.609 15.4431,10.609 15.5,9.5 Z"/></g>
<g><path style="opacity:1" fill="#bcd8f2" d="M 28.5,10.5 C 30.5,10.5 32.5,10.5 34.5,10.5C 33.8333,11.8333 32.8333,12.8333 31.5,13.5C 30.3065,12.7281 29.3065,11.7281 28.5,10.5 Z"/></g>
<g><path style="opacity:1" fill="#a4bbd3" d="M 35.5,9.5 C 35.3284,10.4916 35.6618,11.1583 36.5,11.5C 35.4154,13.5869 33.7488,14.9202 31.5,15.5C 31.5,14.8333 31.5,14.1667 31.5,13.5C 32.8333,12.8333 33.8333,11.8333 34.5,10.5C 34.5,9.83333 34.8333,9.5 35.5,9.5 Z"/></g>
<g><path style="opacity:1" fill="#7bb4e2" d="M 40.5,10.5 C 43.4359,11.4058 46.4359,12.0725 49.5,12.5C 49.5,12.8333 49.5,13.1667 49.5,13.5C 48.8333,13.5 48.1667,13.5 47.5,13.5C 44.5185,13.8176 42.1852,12.8176 40.5,10.5 Z"/></g>
<g><path style="opacity:1" fill="#ced8e2" d="M 7.5,9.5 C 7.83333,10.5 8.5,11.1667 9.5,11.5C 9.5,13.1667 9.5,14.8333 9.5,16.5C 8.09368,16.0269 7.42702,15.0269 7.5,13.5C 6.31434,12.0387 6.31434,10.7054 7.5,9.5 Z"/></g>
<g><path style="opacity:1" fill="#d2eafc" d="M 7.5,8.5 C 9.5168,9.52939 11.5168,10.5294 13.5,11.5C 13.5,12.1667 13.8333,12.5 14.5,12.5C 14.5,12.8333 14.5,13.1667 14.5,13.5C 14.1667,13.5 13.8333,13.5 13.5,13.5C 11.9382,13.2671 10.6049,12.6005 9.5,11.5C 8.5,11.1667 7.83333,10.5 7.5,9.5C 7.5,9.16667 7.5,8.83333 7.5,8.5 Z"/></g>
<g><path style="opacity:1" fill="#347fc5" d="M 3.5,6.5 C 3.83333,6.5 4.16667,6.5 4.5,6.5C 4.5,8.16667 4.5,9.83333 4.5,11.5C 4.5,12.1667 4.16667,12.5 3.5,12.5C 3.64945,11.448 3.48278,10.448 3,9.5C 2.71039,11.0441 2.04373,12.3774 1,13.5C 0.535656,12.9056 0.368989,12.2389 0.5,11.5C 1.68566,10.2946 1.68566,8.96126 0.5,7.5C 1.22158,7.08247 1.72158,6.4158 2,5.5C 2.33333,6.5 2.66667,7.5 3,8.5C 3.46434,7.90558 3.63101,7.23891 3.5,6.5 Z"/></g>
<g><path style="opacity:1" fill="#baccde" d="M 36.5,11.5 C 36.8333,11.5 37.1667,11.5 37.5,11.5C 38.1667,11.5 38.5,11.8333 38.5,12.5C 38.5,12.8333 38.5,13.1667 38.5,13.5C 36.394,15.2819 34.0606,16.6153 31.5,17.5C 31.5,16.8333 31.5,16.1667 31.5,15.5C 33.7488,14.9202 35.4154,13.5869 36.5,11.5 Z"/></g>
<g><path style="opacity:1" fill="#a6ceea" d="M 37.5,9.5 C 38.391,10.1098 39.391,10.4431 40.5,10.5C 42.1852,12.8176 44.5185,13.8176 47.5,13.5C 47.1667,14.1667 46.8333,14.8333 46.5,15.5C 43.8069,14.4485 41.1402,13.4485 38.5,12.5C 38.5,11.8333 38.1667,11.5 37.5,11.5C 37.5,10.8333 37.5,10.1667 37.5,9.5 Z"/></g>
<g><path style="opacity:1" fill="#358ccf" d="M 3.5,12.5 C 3.55688,13.609 3.89022,14.609 4.5,15.5C 3.59603,16.209 3.26269,17.209 3.5,18.5C 2.16667,18.5 0.833333,18.5 -0.5,18.5C -0.5,16.1667 -0.5,13.8333 -0.5,11.5C -0.166667,11.5 0.166667,11.5 0.5,11.5C 0.368989,12.2389 0.535656,12.9056 1,13.5C 2.04373,12.3774 2.71039,11.0441 3,9.5C 3.48278,10.448 3.64945,11.448 3.5,12.5 Z"/></g>
<g><path style="opacity:1" fill="#f0ebe8" d="M 9.5,11.5 C 10.6049,12.6005 11.9382,13.2671 13.5,13.5C 12.5,15.1667 11.1667,16.5 9.5,17.5C 9.5,17.1667 9.5,16.8333 9.5,16.5C 9.5,14.8333 9.5,13.1667 9.5,11.5 Z"/></g>
<g><path style="opacity:1" fill="#7eb5e2" d="M 18.5,11.5 C 19.5,11.5 20.5,11.5 21.5,11.5C 22.5,11.5 23.5,11.5 24.5,11.5C 26.7014,12.5664 29.0347,13.233 31.5,13.5C 31.5,14.1667 31.5,14.8333 31.5,15.5C 30.2223,15.7822 29.2223,16.4489 28.5,17.5C 28.6716,16.5084 28.3382,15.8417 27.5,15.5C 25.0949,12.4833 22.0949,11.8167 18.5,13.5C 18.5,12.8333 18.5,12.1667 18.5,11.5 Z"/></g>
<g><path style="opacity:1" fill="#a8a2a6" d="M 13.5,13.5 C 13.8333,13.5 14.1667,13.5 14.5,13.5C 14.8333,13.5 15.1667,13.5 15.5,13.5C 14.8333,14.5 14.1667,15.5 13.5,16.5C 12.5,16.8333 11.8333,17.5 11.5,18.5C 10.8333,18.5 10.1667,18.5 9.5,18.5C 9.5,18.1667 9.5,17.8333 9.5,17.5C 11.1667,16.5 12.5,15.1667 13.5,13.5 Z"/></g>
<g><path style="opacity:1" fill="#5faae6" d="M 27.5,15.5 C 27.0377,16.8799 26.0377,17.5466 24.5,17.5C 22.6663,16.2455 20.6663,15.5789 18.5,15.5C 18.5,14.8333 18.5,14.1667 18.5,13.5C 22.0949,11.8167 25.0949,12.4833 27.5,15.5 Z"/></g>
<g><path style="opacity:1" fill="#d2e6f4" d="M 38.5,13.5 C 38.5,13.1667 38.5,12.8333 38.5,12.5C 41.1402,13.4485 43.8069,14.4485 46.5,15.5C 46.5,16.5 46.5,17.5 46.5,18.5C 44.2075,18.7564 42.0408,18.4231 40,17.5C 39.5034,19.8098 39.3367,22.1432 39.5,24.5C 39.5,24.8333 39.5,25.1667 39.5,25.5C 38.8333,25.5 38.5,25.1667 38.5,24.5C 38.6716,23.5084 38.3382,22.8417 37.5,22.5C 37.1044,19.5178 37.7711,16.8511 39.5,14.5C 39.3764,13.8933 39.0431,13.56 38.5,13.5 Z"/></g>
<g><path style="opacity:1" fill="#c9dfed" d="M 38.5,13.5 C 39.0431,13.56 39.3764,13.8933 39.5,14.5C 37.7711,16.8511 37.1044,19.5178 37.5,22.5C 35.744,17.4501 34.0774,17.7834 32.5,23.5C 32.5,24.1667 32.1667,24.5 31.5,24.5C 31.7845,22.5853 31.4511,20.9187 30.5,19.5C 30.3284,18.5084 30.6618,17.8417 31.5,17.5C 34.0606,16.6153 36.394,15.2819 38.5,13.5 Z"/></g>
<g><path style="opacity:1" fill="#e4fbfe" d="M 7.5,13.5 C 7.42702,15.0269 8.09368,16.0269 9.5,16.5C 9.5,16.8333 9.5,17.1667 9.5,17.5C 9.5,17.8333 9.5,18.1667 9.5,18.5C 8.66175,18.8417 8.32842,19.5084 8.5,20.5C 7.83333,19.5 7.16667,18.5 6.5,17.5C 6.5,16.8333 6.5,16.1667 6.5,15.5C 6.32842,14.5084 6.66175,13.8417 7.5,13.5 Z"/></g>
<g><path style="opacity:1" fill="#d5dff3" d="M 15.5,13.5 C 16.7777,13.7822 17.7777,14.4489 18.5,15.5C 18.5,15.8333 18.5,16.1667 18.5,16.5C 17.6618,16.8417 17.3284,17.5084 17.5,18.5C 17.1667,18.5 16.8333,18.5 16.5,18.5C 16.6495,17.448 16.4828,16.448 16,15.5C 15.79,17.0581 15.29,18.3915 14.5,19.5C 14.7373,18.209 14.404,17.209 13.5,16.5C 14.1667,15.5 14.8333,14.5 15.5,13.5 Z"/></g>
<g><path style="opacity:1" fill="#62a8d6" d="M 18.5,16.5 C 18.5,16.1667 18.5,15.8333 18.5,15.5C 20.6663,15.5789 22.6663,16.2455 24.5,17.5C 26.0377,17.5466 27.0377,16.8799 27.5,15.5C 28.3382,15.8417 28.6716,16.5084 28.5,17.5C 27.6618,17.8417 27.3284,18.5084 27.5,19.5C 26.0413,19.4326 24.7079,19.7659 23.5,20.5C 23.1667,19.5 22.5,18.8333 21.5,18.5C 21.0269,17.0937 20.0269,16.427 18.5,16.5 Z"/></g>
<g><path style="opacity:1" fill="#83b8d5" d="M 31.5,15.5 C 31.5,16.1667 31.5,16.8333 31.5,17.5C 30.6618,17.8417 30.3284,18.5084 30.5,19.5C 29.8333,19.8333 29.1667,20.1667 28.5,20.5C 27.8333,20.5 27.5,20.1667 27.5,19.5C 27.3284,18.5084 27.6618,17.8417 28.5,17.5C 29.2223,16.4489 30.2223,15.7822 31.5,15.5 Z"/></g>
<g><path style="opacity:1" fill="#e0f1fb" d="M 47.5,13.5 C 48.1667,13.5 48.8333,13.5 49.5,13.5C 49.5,14.5 49.5,15.5 49.5,16.5C 47.9519,16.8212 47.2852,17.8212 47.5,19.5C 45.8333,19.5 44.1667,19.5 42.5,19.5C 40.9724,20.8021 39.9724,22.4687 39.5,24.5C 39.3367,22.1432 39.5034,19.8098 40,17.5C 42.0408,18.4231 44.2075,18.7564 46.5,18.5C 46.5,17.5 46.5,16.5 46.5,15.5C 46.8333,14.8333 47.1667,14.1667 47.5,13.5 Z"/></g>
<g><path style="opacity:1" fill="#cce3f2" d="M 49.5,16.5 C 49.5,18.5 49.5,20.5 49.5,22.5C 49.1667,22.5 48.8333,22.5 48.5,22.5C 47.8333,22.5 47.5,22.1667 47.5,21.5C 47.5,20.8333 47.5,20.1667 47.5,19.5C 47.2852,17.8212 47.9519,16.8212 49.5,16.5 Z"/></g>
<g><path style="opacity:1" fill="#4895cb" d="M 4.5,11.5 C 5.43448,12.5676 5.76781,13.901 5.5,15.5C 5.5,18.1667 5.5,20.8333 5.5,23.5C 3.97306,23.427 2.97306,24.0937 2.5,25.5C 1.66175,25.1583 1.32842,24.4916 1.5,23.5C 2.22158,23.0825 2.72158,22.4158 3,21.5C 3.33333,21.8333 3.66667,22.1667 4,22.5C 4.49665,20.1902 4.66331,17.8568 4.5,15.5C 3.89022,14.609 3.55688,13.609 3.5,12.5C 4.16667,12.5 4.5,12.1667 4.5,11.5 Z"/></g>
<g><path style="opacity:1" fill="#eaebf5" d="M 13.5,16.5 C 14.404,17.209 14.7373,18.209 14.5,19.5C 14.8064,22.3854 14.4731,25.0521 13.5,27.5C 13.2969,25.9557 12.6302,24.6223 11.5,23.5C 12.7349,21.6837 12.7349,20.017 11.5,18.5C 11.8333,17.5 12.5,16.8333 13.5,16.5 Z"/></g>
<g><path style="opacity:1" fill="#cadbf3" d="M 18.5,16.5 C 20.0269,16.427 21.0269,17.0937 21.5,18.5C 21.5,19.8333 20.8333,20.5 19.5,20.5C 18.5655,19.4324 18.2322,18.099 18.5,16.5 Z"/></g>
<g><path style="opacity:1" fill="#479fdd" d="M 4.5,15.5 C 4.66331,17.8568 4.49665,20.1902 4,22.5C 3.66667,22.1667 3.33333,21.8333 3,21.5C 2.72158,22.4158 2.22158,23.0825 1.5,23.5C 1.65668,22.1266 1.49001,20.7932 1,19.5C 0.721579,20.4158 0.221579,21.0825 -0.5,21.5C -0.5,20.5 -0.5,19.5 -0.5,18.5C 0.833333,18.5 2.16667,18.5 3.5,18.5C 3.26269,17.209 3.59603,16.209 4.5,15.5 Z"/></g>
<g><path style="opacity:1" fill="#f6f9fa" d="M 9.5,18.5 C 10.1667,18.5 10.8333,18.5 11.5,18.5C 12.7349,20.017 12.7349,21.6837 11.5,23.5C 12.6302,24.6223 13.2969,25.9557 13.5,27.5C 13.1667,27.5 12.8333,27.5 12.5,27.5C 11.5,26.8333 10.5,26.1667 9.5,25.5C 8.962,23.8828 8.62867,22.2161 8.5,20.5C 8.32842,19.5084 8.66175,18.8417 9.5,18.5 Z"/></g>
<g><path style="opacity:1" fill="#71b2cd" d="M 27.5,19.5 C 27.5,20.1667 27.8333,20.5 28.5,20.5C 28.1667,21.1667 27.8333,21.8333 27.5,22.5C 25.5168,22.8432 24.1834,22.1765 23.5,20.5C 24.7079,19.7659 26.0413,19.4326 27.5,19.5 Z"/></g>
<g><path style="opacity:1" fill="#e6f6fd" d="M 42.5,19.5 C 41.0048,21.8311 41.3382,23.8311 43.5,25.5C 42.0413,25.4326 40.7079,25.7659 39.5,26.5C 39.5,26.1667 39.5,25.8333 39.5,25.5C 39.5,25.1667 39.5,24.8333 39.5,24.5C 39.9724,22.4687 40.9724,20.8021 42.5,19.5 Z"/></g>
<g><path style="opacity:1" fill="#f2fbfd" d="M 42.5,19.5 C 44.1667,19.5 45.8333,19.5 47.5,19.5C 47.5,20.1667 47.5,20.8333 47.5,21.5C 46.5,21.5 45.5,21.5 44.5,21.5C 44.5,22.8333 44.5,24.1667 44.5,25.5C 44.1667,25.5 43.8333,25.5 43.5,25.5C 41.3382,23.8311 41.0048,21.8311 42.5,19.5 Z"/></g>
<g><path style="opacity:1" fill="#f9fcfc" d="M 47.5,21.5 C 47.5,22.1667 47.8333,22.5 48.5,22.5C 47.9653,24.4456 46.632,25.4456 44.5,25.5C 44.5,24.1667 44.5,22.8333 44.5,21.5C 45.5,21.5 46.5,21.5 47.5,21.5 Z"/></g>
<g><path style="opacity:1" fill="#b9cce6" d="M 21.5,18.5 C 22.5,18.8333 23.1667,19.5 23.5,20.5C 24.1834,22.1765 25.5168,22.8432 27.5,22.5C 26.791,23.404 25.791,23.7373 24.5,23.5C 23.5,23.5 22.5,23.5 21.5,23.5C 19.9519,23.1788 19.2852,22.1788 19.5,20.5C 20.8333,20.5 21.5,19.8333 21.5,18.5 Z"/></g>
<g><path style="opacity:1" fill="#e8f3fd" d="M 21.5,23.5 C 22.5,23.5 23.5,23.5 24.5,23.5C 24.2627,24.791 24.596,25.791 25.5,26.5C 26.3764,26.3691 27.0431,26.7025 27.5,27.5C 25.9547,28.4519 24.288,28.7852 22.5,28.5C 22.5674,27.0413 22.2341,25.7079 21.5,24.5C 21.5,24.1667 21.5,23.8333 21.5,23.5 Z"/></g>
<g><path style="opacity:1" fill="#dfe5f1" d="M 30.5,19.5 C 31.4511,20.9187 31.7845,22.5853 31.5,24.5C 31.5,25.1667 31.5,25.8333 31.5,26.5C 31.5,26.8333 31.5,27.1667 31.5,27.5C 30.5,27.5 29.5,27.5 28.5,27.5C 28.5,26.5 28.5,25.5 28.5,24.5C 26.8212,24.2852 25.8212,24.9519 25.5,26.5C 24.596,25.791 24.2627,24.791 24.5,23.5C 25.791,23.7373 26.791,23.404 27.5,22.5C 27.8333,21.8333 28.1667,21.1667 28.5,20.5C 29.1667,20.1667 29.8333,19.8333 30.5,19.5 Z"/></g>
<g><path style="opacity:1" fill="#b5d6ea" d="M 37.5,22.5 C 38.3382,22.8417 38.6716,23.5084 38.5,24.5C 37.5655,25.5676 37.2322,26.901 37.5,28.5C 36.6981,27.0484 36.1981,25.3817 36,23.5C 34.8545,22.3157 33.6879,22.3157 32.5,23.5C 34.0774,17.7834 35.744,17.4501 37.5,22.5 Z"/></g>
<g><path style="opacity:1" fill="#c8d0e3" d="M 16.5,18.5 C 16.8333,18.5 17.1667,18.5 17.5,18.5C 17.2938,21.4951 17.9605,24.1617 19.5,26.5C 19.5,26.8333 19.5,27.1667 19.5,27.5C 18.6618,27.8417 18.3284,28.5084 18.5,29.5C 18.1667,29.5 17.8333,29.5 17.5,29.5C 16.5184,26.0381 16.185,22.3714 16.5,18.5 Z"/></g>
<g><path style="opacity:1" fill="#dde5f0" d="M 18.5,16.5 C 18.2322,18.099 18.5655,19.4324 19.5,20.5C 19.2852,22.1788 19.9519,23.1788 21.5,23.5C 21.5,23.8333 21.5,24.1667 21.5,24.5C 20.1667,24.5 19.5,25.1667 19.5,26.5C 17.9605,24.1617 17.2938,21.4951 17.5,18.5C 17.3284,17.5084 17.6618,16.8417 18.5,16.5 Z"/></g>
<g><path style="opacity:1" fill="#5daee3" d="M 1.5,23.5 C 1.32842,24.4916 1.66175,25.1583 2.5,25.5C 2.02694,26.9063 1.02694,27.573 -0.5,27.5C -0.5,25.5 -0.5,23.5 -0.5,21.5C 0.221579,21.0825 0.721579,20.4158 1,19.5C 1.49001,20.7932 1.65668,22.1266 1.5,23.5 Z"/></g>
<g><path style="opacity:1" fill="#88c8e9" d="M 31.5,26.5 C 34.2639,26.9988 35.9305,28.6655 36.5,31.5C 35.1667,31.5 33.8333,31.5 32.5,31.5C 32.1667,31.5 31.8333,31.5 31.5,31.5C 31.5,30.5 31.5,29.5 31.5,28.5C 31.5,28.1667 31.5,27.8333 31.5,27.5C 31.5,27.1667 31.5,26.8333 31.5,26.5 Z"/></g>
<g><path style="opacity:1" fill="#95c8e4" d="M 37.5,28.5 C 37.5,29.5 37.5,30.5 37.5,31.5C 37.1667,31.5 36.8333,31.5 36.5,31.5C 35.9305,28.6655 34.2639,26.9988 31.5,26.5C 31.5,25.8333 31.5,25.1667 31.5,24.5C 32.1667,24.5 32.5,24.1667 32.5,23.5C 33.6879,22.3157 34.8545,22.3157 36,23.5C 36.1981,25.3817 36.6981,27.0484 37.5,28.5 Z"/></g>
<g><path style="opacity:1" fill="#f0f6fa" d="M 48.5,22.5 C 48.8333,22.5 49.1667,22.5 49.5,22.5C 49.5,24.1667 49.5,25.8333 49.5,27.5C 47.857,27.4802 46.5237,28.1468 45.5,29.5C 44.6376,28.2342 43.9709,26.9008 43.5,25.5C 43.8333,25.5 44.1667,25.5 44.5,25.5C 46.632,25.4456 47.9653,24.4456 48.5,22.5 Z"/></g>
<g><path style="opacity:1" fill="#6cb2dd" d="M 5.5,23.5 C 3.97516,25.2163 2.97516,27.2163 2.5,29.5C 1.50838,29.3284 0.841711,29.6618 0.5,30.5C 0.5,30.8333 0.5,31.1667 0.5,31.5C 0.166667,31.5 -0.166667,31.5 -0.5,31.5C -0.5,30.1667 -0.5,28.8333 -0.5,27.5C 1.02694,27.573 2.02694,26.9063 2.5,25.5C 2.97306,24.0937 3.97306,23.427 5.5,23.5 Z"/></g>
<g><path style="opacity:1" fill="#7ebadf" d="M 5.5,15.5 C 5.83333,15.5 6.16667,15.5 6.5,15.5C 6.5,16.1667 6.5,16.8333 6.5,17.5C 7.21645,22.3407 5.88311,26.3407 2.5,29.5C 2.97516,27.2163 3.97516,25.2163 5.5,23.5C 5.5,20.8333 5.5,18.1667 5.5,15.5 Z"/></g>
<g><path style="opacity:1" fill="#a3cee6" d="M 6.5,17.5 C 7.16667,18.5 7.83333,19.5 8.5,20.5C 8.62867,22.2161 8.962,23.8828 9.5,25.5C 9.67158,26.4916 9.33825,27.1583 8.5,27.5C 6.30785,29.5896 3.64118,30.5896 0.5,30.5C 0.841711,29.6618 1.50838,29.3284 2.5,29.5C 5.88311,26.3407 7.21645,22.3407 6.5,17.5 Z"/></g>
<g><path style="opacity:1" fill="#c3dff3" d="M 9.5,25.5 C 10.5,26.1667 11.5,26.8333 12.5,27.5C 12.5,28.8333 12.5,30.1667 12.5,31.5C 11.8333,31.5 11.1667,31.5 10.5,31.5C 10.4729,29.8007 9.80624,28.4674 8.5,27.5C 9.33825,27.1583 9.67158,26.4916 9.5,25.5 Z"/></g>
<g><path style="opacity:1" fill="#9da7ba" d="M 16.5,18.5 C 16.185,22.3714 16.5184,26.0381 17.5,29.5C 17.0074,31.8056 16.6741,34.139 16.5,36.5C 15.8333,36.5 15.5,36.1667 15.5,35.5C 15.5,34.1667 15.5,32.8333 15.5,31.5C 14.5,31.5 13.5,31.5 12.5,31.5C 12.5,30.1667 12.5,28.8333 12.5,27.5C 12.8333,27.5 13.1667,27.5 13.5,27.5C 14.4731,25.0521 14.8064,22.3854 14.5,19.5C 15.29,18.3915 15.79,17.0581 16,15.5C 16.4828,16.448 16.6495,17.448 16.5,18.5 Z"/></g>
<g><path style="opacity:1" fill="#bdc7d6" d="M 21.5,24.5 C 22.2341,25.7079 22.5674,27.0413 22.5,28.5C 24.288,28.7852 25.9547,28.4519 27.5,27.5C 27.0431,26.7025 26.3764,26.3691 25.5,26.5C 25.8212,24.9519 26.8212,24.2852 28.5,24.5C 28.5,25.5 28.5,26.5 28.5,27.5C 29.5,27.5 30.5,27.5 31.5,27.5C 31.5,27.8333 31.5,28.1667 31.5,28.5C 29.8828,29.038 28.2161,29.3713 26.5,29.5C 25.209,29.2627 24.209,29.596 23.5,30.5C 22.0337,29.653 21.2004,28.3197 21,26.5C 20.6174,27.056 20.1174,27.3893 19.5,27.5C 19.5,27.1667 19.5,26.8333 19.5,26.5C 19.5,25.1667 20.1667,24.5 21.5,24.5 Z"/></g>
<g><path style="opacity:1" fill="#a7a4b3" d="M 23.5,30.5 C 22.4324,31.4345 21.099,31.7678 19.5,31.5C 19.6716,30.5084 19.3382,29.8417 18.5,29.5C 18.3284,28.5084 18.6618,27.8417 19.5,27.5C 20.1174,27.3893 20.6174,27.056 21,26.5C 21.2004,28.3197 22.0337,29.653 23.5,30.5 Z"/></g>
<g><path style="opacity:1" fill="#accee2" d="M 42.5,31.5 C 40.8958,32.287 40.2291,33.6203 40.5,35.5C 39.8333,35.5 39.1667,35.5 38.5,35.5C 38.5,34.5 38.5,33.5 38.5,32.5C 39.404,31.791 39.7373,30.791 39.5,29.5C 43.1667,26.1667 44.1667,26.8333 42.5,31.5 Z"/></g>
<g><path style="opacity:1" fill="#dbeef8" d="M 43.5,25.5 C 43.9709,26.9008 44.6376,28.2342 45.5,29.5C 46.5237,28.1468 47.857,27.4802 49.5,27.5C 49.5,28.1667 49.5,28.8333 49.5,29.5C 48.391,29.5569 47.391,29.8902 46.5,30.5C 45.5084,30.3284 44.8417,30.6618 44.5,31.5C 43.8333,31.5 43.1667,31.5 42.5,31.5C 44.1667,26.8333 43.1667,26.1667 39.5,29.5C 38.1667,28.5 38.1667,27.5 39.5,26.5C 40.7079,25.7659 42.0413,25.4326 43.5,25.5 Z"/></g>
<g><path style="opacity:1" fill="#b9e4fc" d="M 8.5,27.5 C 9.80624,28.4674 10.4729,29.8007 10.5,31.5C 9.20895,31.2627 8.20895,31.596 7.5,32.5C 7.16667,32.5 6.83333,32.5 6.5,32.5C 4.73535,31.5386 2.73535,31.2053 0.5,31.5C 0.5,31.1667 0.5,30.8333 0.5,30.5C 3.64118,30.5896 6.30785,29.5896 8.5,27.5 Z"/></g>
<g><path style="opacity:1" fill="#95a6b9" d="M 26.5,29.5 C 25.4726,31.1942 24.1392,32.5275 22.5,33.5C 21.5,34.1667 20.5,34.8333 19.5,35.5C 18.1667,34.1667 18.1667,32.8333 19.5,31.5C 21.099,31.7678 22.4324,31.4345 23.5,30.5C 24.209,29.596 25.209,29.2627 26.5,29.5 Z"/></g>
<g><path style="opacity:1" fill="#76889e" d="M 31.5,28.5 C 31.5,29.5 31.5,30.5 31.5,31.5C 29.597,31.7959 27.9303,32.4625 26.5,33.5C 26.1667,33.5 25.8333,33.5 25.5,33.5C 24.5,33.5 23.5,33.5 22.5,33.5C 24.1392,32.5275 25.4726,31.1942 26.5,29.5C 28.2161,29.3713 29.8828,29.038 31.5,28.5 Z"/></g>
<g><path style="opacity:1" fill="#b5e0f9" d="M 38.5,24.5 C 38.5,25.1667 38.8333,25.5 39.5,25.5C 39.5,25.8333 39.5,26.1667 39.5,26.5C 38.1667,27.5 38.1667,28.5 39.5,29.5C 39.7373,30.791 39.404,31.791 38.5,32.5C 38.1667,32.5 37.8333,32.5 37.5,32.5C 37.5,32.1667 37.5,31.8333 37.5,31.5C 37.5,30.5 37.5,29.5 37.5,28.5C 37.2322,26.901 37.5655,25.5676 38.5,24.5 Z"/></g>
<g><path style="opacity:1" fill="#ddf6f8" d="M 49.5,29.5 C 49.5,30.1667 49.5,30.8333 49.5,31.5C 47.631,33.6353 46.9644,36.3019 47.5,39.5C 46.8333,39.5 46.1667,39.5 45.5,39.5C 45.9853,36.4856 46.3186,33.4856 46.5,30.5C 47.391,29.8902 48.391,29.5569 49.5,29.5 Z"/></g>
<g><path style="opacity:1" fill="#f1f7fd" d="M 49.5,31.5 C 49.5,34.1667 49.5,36.8333 49.5,39.5C 48.8333,39.5 48.1667,39.5 47.5,39.5C 46.9644,36.3019 47.631,33.6353 49.5,31.5 Z"/></g>
<g><path style="opacity:1" fill="#cde1f8" d="M -0.5,32.5 C -0.5,32.1667 -0.5,31.8333 -0.5,31.5C -0.166667,31.5 0.166667,31.5 0.5,31.5C 2.73535,31.2053 4.73535,31.5386 6.5,32.5C 4.16667,33.8333 1.83333,33.8333 -0.5,32.5 Z"/></g>
<g><path style="opacity:1" fill="#b4bac6" d="M 31.5,31.5 C 31.8333,31.5 32.1667,31.5 32.5,31.5C 32.7373,32.791 32.404,33.791 31.5,34.5C 29.8828,33.962 28.2161,33.6287 26.5,33.5C 27.9303,32.4625 29.597,31.7959 31.5,31.5 Z"/></g>
<g><path style="opacity:1" fill="#ddecf4" d="M 37.5,32.5 C 37.8333,32.5 38.1667,32.5 38.5,32.5C 38.5,33.5 38.5,34.5 38.5,35.5C 37.788,34.2613 36.788,33.7613 35.5,34C 36.6843,35.1455 36.6843,36.3121 35.5,37.5C 35.1667,37.5 34.8333,37.5 34.5,37.5C 34.5,35.8333 34.5,34.1667 34.5,32.5C 35.5,32.5 36.5,32.5 37.5,32.5 Z"/></g>
<g><path style="opacity:1" fill="#c0e4f5" d="M -0.5,32.5 C 1.83333,33.8333 4.16667,33.8333 6.5,32.5C 6.83333,32.5 7.16667,32.5 7.5,32.5C 6.90952,34.0972 5.90952,35.4305 4.5,36.5C 5.61191,37.2652 6.27858,38.2652 6.5,39.5C 4.16667,39.5 1.83333,39.5 -0.5,39.5C -0.5,39.1667 -0.5,38.8333 -0.5,38.5C 1.91176,38.3059 2.91176,36.9726 2.5,34.5C 1.5,34.5 0.5,34.5 -0.5,34.5C -0.5,33.8333 -0.5,33.1667 -0.5,32.5 Z"/></g>
<g><path style="opacity:1" fill="#92bece" d="M 12.5,31.5 C 13.5,31.5 14.5,31.5 15.5,31.5C 15.5,32.8333 15.5,34.1667 15.5,35.5C 12.4331,35.8795 11.4331,34.8795 12.5,32.5C 12.5,32.1667 12.5,31.8333 12.5,31.5 Z"/></g>
<g><path style="opacity:1" fill="#717e94" d="M 17.5,29.5 C 17.8333,29.5 18.1667,29.5 18.5,29.5C 19.3382,29.8417 19.6716,30.5084 19.5,31.5C 18.1667,32.8333 18.1667,34.1667 19.5,35.5C 19.5,36.1667 19.8333,36.5 20.5,36.5C 20.5,36.8333 20.5,37.1667 20.5,37.5C 19.1667,37.1667 17.8333,36.8333 16.5,36.5C 16.6741,34.139 17.0074,31.8056 17.5,29.5 Z"/></g>
<g><path style="opacity:1" fill="#e3e7f5" d="M 22.5,33.5 C 23.5,33.5 24.5,33.5 25.5,33.5C 24.5946,34.9643 24.5946,36.2976 25.5,37.5C 24.8333,37.5 24.1667,37.5 23.5,37.5C 22.391,37.4431 21.391,37.1098 20.5,36.5C 19.8333,36.5 19.5,36.1667 19.5,35.5C 20.5,34.8333 21.5,34.1667 22.5,33.5 Z"/></g>
<g><path style="opacity:1" fill="#cfd9e5" d="M 32.5,31.5 C 33.8333,31.5 35.1667,31.5 36.5,31.5C 36.8333,31.5 37.1667,31.5 37.5,31.5C 37.5,31.8333 37.5,32.1667 37.5,32.5C 36.5,32.5 35.5,32.5 34.5,32.5C 34.5,34.1667 34.5,35.8333 34.5,37.5C 34.5,38.1667 34.1667,38.5 33.5,38.5C 33.7148,36.8212 33.0481,35.8212 31.5,35.5C 31.5,35.1667 31.5,34.8333 31.5,34.5C 32.404,33.791 32.7373,32.791 32.5,31.5 Z"/></g>
<g><path style="opacity:1" fill="#b1e4f4" d="M 42.5,31.5 C 43.1667,31.5 43.8333,31.5 44.5,31.5C 44.7947,33.7354 44.4614,35.7354 43.5,37.5C 43.666,33.6266 42.666,32.9599 40.5,35.5C 40.2291,33.6203 40.8958,32.287 42.5,31.5 Z"/></g>
<g><path style="opacity:1" fill="#aee3f6" d="M 10.5,31.5 C 11.1667,31.5 11.8333,31.5 12.5,31.5C 12.5,31.8333 12.5,32.1667 12.5,32.5C 11.1667,32.5 9.83333,32.5 8.5,32.5C 8.64271,34.2624 8.30937,35.9291 7.5,37.5C 7.95689,38.2975 8.62356,38.6309 9.5,38.5C 9.5,38.8333 9.5,39.1667 9.5,39.5C 9.39151,41.5138 10.0582,43.1805 11.5,44.5C 11.5,44.8333 11.5,45.1667 11.5,45.5C 11.1667,45.5 10.8333,45.5 10.5,45.5C 9.5,44.8333 8.5,44.1667 7.5,43.5C 7.56745,42.0413 7.23411,40.7079 6.5,39.5C 6.27858,38.2652 5.61191,37.2652 4.5,36.5C 5.90952,35.4305 6.90952,34.0972 7.5,32.5C 8.20895,31.596 9.20895,31.2627 10.5,31.5 Z"/></g>
<g><path style="opacity:1" fill="#f7f2f7" d="M 25.5,33.5 C 25.8333,33.5 26.1667,33.5 26.5,33.5C 28.2161,33.6287 29.8828,33.962 31.5,34.5C 31.5,34.8333 31.5,35.1667 31.5,35.5C 31.7373,36.791 31.404,37.791 30.5,38.5C 28.7839,38.3713 27.1172,38.038 25.5,37.5C 24.5946,36.2976 24.5946,34.9643 25.5,33.5 Z"/></g>
<g><path style="opacity:1" fill="#abdce3" d="M -0.5,34.5 C 0.5,34.5 1.5,34.5 2.5,34.5C 2.91176,36.9726 1.91176,38.3059 -0.5,38.5C -0.5,37.1667 -0.5,35.8333 -0.5,34.5 Z"/></g>
<g><path style="opacity:1" fill="#9fd7f0" d="M 12.5,32.5 C 11.4331,34.8795 12.4331,35.8795 15.5,35.5C 15.5,36.1667 15.8333,36.5 16.5,36.5C 15.791,37.404 14.791,37.7373 13.5,37.5C 11.901,37.2322 10.5676,37.5655 9.5,38.5C 8.62356,38.6309 7.95689,38.2975 7.5,37.5C 8.30937,35.9291 8.64271,34.2624 8.5,32.5C 9.83333,32.5 11.1667,32.5 12.5,32.5 Z"/></g>
<g><path style="opacity:1" fill="#e8f8fb" d="M 38.5,35.5 C 39.1667,35.5 39.8333,35.5 40.5,35.5C 40.4326,36.9587 40.7659,38.2921 41.5,39.5C 41.9528,40.4584 42.6195,41.2917 43.5,42C 43.2716,42.3988 42.9382,42.5654 42.5,42.5C 42.1667,42.5 41.8333,42.5 41.5,42.5C 40.205,41.5116 38.8717,40.5116 37.5,39.5C 37.5,38.1667 36.8333,37.5 35.5,37.5C 36.6843,36.3121 36.6843,35.1455 35.5,34C 36.788,33.7613 37.788,34.2613 38.5,35.5 Z"/></g>
<g><path style="opacity:1" fill="#9fccde" d="M 43.5,37.5 C 43.5,38.1667 43.5,38.8333 43.5,39.5C 42.8333,39.5 42.1667,39.5 41.5,39.5C 40.7659,38.2921 40.4326,36.9587 40.5,35.5C 42.666,32.9599 43.666,33.6266 43.5,37.5 Z"/></g>
<g><path style="opacity:1" fill="#81cbe9" d="M 13.5,37.5 C 13.5569,38.609 13.8902,39.609 14.5,40.5C 14.1667,40.5 13.8333,40.5 13.5,40.5C 12.1667,40.1667 10.8333,39.8333 9.5,39.5C 9.5,39.1667 9.5,38.8333 9.5,38.5C 10.5676,37.5655 11.901,37.2322 13.5,37.5 Z"/></g>
<g><path style="opacity:1" fill="#c3e9f7" d="M 46.5,30.5 C 46.3186,33.4856 45.9853,36.4856 45.5,39.5C 44.8333,39.5 44.1667,39.5 43.5,39.5C 43.5,38.8333 43.5,38.1667 43.5,37.5C 44.4614,35.7354 44.7947,33.7354 44.5,31.5C 44.8417,30.6618 45.5084,30.3284 46.5,30.5 Z"/></g>
<g><path style="opacity:1" fill="#c2d8e5" d="M 20.5,36.5 C 21.391,37.1098 22.391,37.4431 23.5,37.5C 24.8333,38.5 26.1667,39.5 27.5,40.5C 25.7839,40.3713 24.1172,40.038 22.5,39.5C 21.8333,39.1667 21.1667,38.8333 20.5,38.5C 20.5,38.1667 20.5,37.8333 20.5,37.5C 20.5,37.1667 20.5,36.8333 20.5,36.5 Z"/></g>
<g><path style="opacity:1" fill="#f1fcfe" d="M 23.5,37.5 C 24.1667,37.5 24.8333,37.5 25.5,37.5C 27.1172,38.038 28.7839,38.3713 30.5,38.5C 30.8333,39.1667 31.1667,39.8333 31.5,40.5C 30.1667,40.5 28.8333,40.5 27.5,40.5C 26.1667,39.5 24.8333,38.5 23.5,37.5 Z"/></g>
<g><path style="opacity:1" fill="#dce4f1" d="M 31.5,35.5 C 33.0481,35.8212 33.7148,36.8212 33.5,38.5C 32.4019,39.397 32.4019,40.2303 33.5,41C 32.9056,41.4643 32.2389,41.631 31.5,41.5C 31.5,41.1667 31.5,40.8333 31.5,40.5C 31.1667,39.8333 30.8333,39.1667 30.5,38.5C 31.404,37.791 31.7373,36.791 31.5,35.5 Z"/></g>
<g><path style="opacity:1" fill="#84b7d5" d="M 16.5,36.5 C 17.8333,36.8333 19.1667,37.1667 20.5,37.5C 20.5,37.8333 20.5,38.1667 20.5,38.5C 19.5084,38.3284 18.8417,38.6618 18.5,39.5C 18.5,39.8333 18.5,40.1667 18.5,40.5C 17.1667,40.5 15.8333,40.5 14.5,40.5C 13.8902,39.609 13.5569,38.609 13.5,37.5C 14.791,37.7373 15.791,37.404 16.5,36.5 Z"/></g>
<g><path style="opacity:1" fill="#bae2f6" d="M 41.5,39.5 C 42.1667,39.5 42.8333,39.5 43.5,39.5C 44.1667,39.5 44.8333,39.5 45.5,39.5C 46.1667,39.5 46.8333,39.5 47.5,39.5C 48.1667,39.5 48.8333,39.5 49.5,39.5C 49.5,40.8333 49.5,42.1667 49.5,43.5C 47.9557,43.2969 46.6223,42.6302 45.5,41.5C 44.8182,42.2427 44.1515,42.9094 43.5,43.5C 42.8333,43.5 42.5,43.1667 42.5,42.5C 42.9382,42.5654 43.2716,42.3988 43.5,42C 42.6195,41.2917 41.9528,40.4584 41.5,39.5 Z"/></g>
<g><path style="opacity:1" fill="#d0ebfa" d="M -0.5,40.5 C -0.5,40.1667 -0.5,39.8333 -0.5,39.5C 1.83333,39.5 4.16667,39.5 6.5,39.5C 7.23411,40.7079 7.56745,42.0413 7.5,43.5C 7.5,43.8333 7.5,44.1667 7.5,44.5C 6.83333,44.1667 6.16667,43.8333 5.5,43.5C 5.58577,42.5041 5.25244,41.6708 4.5,41C 2.86586,40.5065 1.19919,40.3398 -0.5,40.5 Z"/></g>
<g><path style="opacity:1" fill="#b6dae5" d="M 22.5,39.5 C 24.1172,40.038 25.7839,40.3713 27.5,40.5C 28.8333,40.5 30.1667,40.5 31.5,40.5C 31.5,40.8333 31.5,41.1667 31.5,41.5C 31.5,42.1667 31.5,42.8333 31.5,43.5C 29.3792,43.6747 27.3792,43.3414 25.5,42.5C 24.3065,41.7281 23.3065,40.7281 22.5,39.5 Z"/></g>
<g><path style="opacity:1" fill="#e9effc" d="M -0.5,40.5 C 1.19919,40.3398 2.86586,40.5065 4.5,41C 5.25244,41.6708 5.58577,42.5041 5.5,43.5C 5.5,43.8333 5.5,44.1667 5.5,44.5C 3.68545,43.3702 1.68545,42.7036 -0.5,42.5C -0.5,41.8333 -0.5,41.1667 -0.5,40.5 Z"/></g>
<g><path style="opacity:1" fill="#d4d9e3" d="M 34.5,37.5 C 34.8333,37.5 35.1667,37.5 35.5,37.5C 36.8333,37.5 37.5,38.1667 37.5,39.5C 36.6365,38.537 35.9698,38.537 35.5,39.5C 36.1925,40.5178 36.8592,41.5178 37.5,42.5C 36.5084,42.3284 35.8417,42.6618 35.5,43.5C 34.2976,44.4054 32.9643,44.4054 31.5,43.5C 31.5,42.8333 31.5,42.1667 31.5,41.5C 32.2389,41.631 32.9056,41.4643 33.5,41C 32.4019,40.2303 32.4019,39.397 33.5,38.5C 34.1667,38.5 34.5,38.1667 34.5,37.5 Z"/></g>
<g><path style="opacity:1" fill="#aab4c1" d="M 37.5,39.5 C 38.8717,40.5116 40.205,41.5116 41.5,42.5C 41.1667,42.5 40.8333,42.5 40.5,42.5C 39.5,42.5 38.5,42.5 37.5,42.5C 36.8592,41.5178 36.1925,40.5178 35.5,39.5C 35.9698,38.537 36.6365,38.537 37.5,39.5 Z"/></g>
<g><path style="opacity:1" fill="#f4fafd" d="M -0.5,42.5 C 1.68545,42.7036 3.68545,43.3702 5.5,44.5C 6.56236,45.5754 6.56236,46.5754 5.5,47.5C 3.58414,48.2483 1.58414,48.2483 -0.5,47.5C -0.5,45.8333 -0.5,44.1667 -0.5,42.5 Z"/></g>
<g><path style="opacity:1" fill="#72c3e1" d="M 13.5,40.5 C 13.8333,40.5 14.1667,40.5 14.5,40.5C 15.8333,40.5 17.1667,40.5 18.5,40.5C 17.4489,41.2223 16.7822,42.2223 16.5,43.5C 15.5,43.5 14.5,43.5 13.5,43.5C 13.5,42.5 13.5,41.5 13.5,40.5 Z"/></g>
<g><path style="opacity:1" fill="#bae9f5" d="M 18.5,39.5 C 18.8417,38.6618 19.5084,38.3284 20.5,38.5C 21.1667,38.8333 21.8333,39.1667 22.5,39.5C 23.3065,40.7281 24.3065,41.7281 25.5,42.5C 24.1667,42.5 23.5,43.1667 23.5,44.5C 22.5,44.5 21.5,44.5 20.5,44.5C 20.8799,42.302 20.2132,40.6354 18.5,39.5 Z"/></g>
<g><path style="opacity:1" fill="#84d4eb" d="M 9.5,39.5 C 10.8333,39.8333 12.1667,40.1667 13.5,40.5C 13.5,41.5 13.5,42.5 13.5,43.5C 14.5,43.5 15.5,43.5 16.5,43.5C 15.0813,44.4511 13.4147,44.7845 11.5,44.5C 10.0582,43.1805 9.39151,41.5138 9.5,39.5 Z"/></g>
<g><path style="opacity:1" fill="#d8f8fe" d="M 25.5,42.5 C 27.3792,43.3414 29.3792,43.6747 31.5,43.5C 31.5,44.1667 31.5,44.8333 31.5,45.5C 30.391,45.4431 29.391,45.1098 28.5,44.5C 26.8333,44.5 25.1667,44.5 23.5,44.5C 23.5,43.1667 24.1667,42.5 25.5,42.5 Z"/></g>
<g><path style="opacity:1" fill="#a6e0f7" d="M 18.5,39.5 C 20.2132,40.6354 20.8799,42.302 20.5,44.5C 19.8333,44.5 19.5,44.8333 19.5,45.5C 17.5082,45.3285 15.8415,45.9951 14.5,47.5C 13.4822,46.8075 12.4822,46.1408 11.5,45.5C 11.5,45.1667 11.5,44.8333 11.5,44.5C 13.4147,44.7845 15.0813,44.4511 16.5,43.5C 16.7822,42.2223 17.4489,41.2223 18.5,40.5C 18.5,40.1667 18.5,39.8333 18.5,39.5 Z"/></g>
<g><path style="opacity:1" fill="#e2f9fc" d="M 20.5,44.5 C 21.5,44.5 22.5,44.5 23.5,44.5C 25.1667,44.5 26.8333,44.5 28.5,44.5C 28.5,44.8333 28.5,45.1667 28.5,45.5C 25.6591,45.1532 23.6591,45.4865 22.5,46.5C 22.5,47.1667 22.1667,47.5 21.5,47.5C 20.5,47.1667 19.8333,46.5 19.5,45.5C 19.5,44.8333 19.8333,44.5 20.5,44.5 Z"/></g>
<g><path style="opacity:1" fill="#a0cde9" d="M 35.5,43.5 C 35.8417,42.6618 36.5084,42.3284 37.5,42.5C 38.5,42.5 39.5,42.5 40.5,42.5C 40.3059,44.9118 38.9726,45.9118 36.5,45.5C 36.6716,44.5084 36.3382,43.8417 35.5,43.5 Z"/></g>
<g><path style="opacity:1" fill="#8bd3ed" d="M 49.5,43.5 C 49.5,44.1667 49.5,44.8333 49.5,45.5C 47.7085,45.634 46.0418,45.3007 44.5,44.5C 43.8333,44.5 43.5,44.1667 43.5,43.5C 44.1515,42.9094 44.8182,42.2427 45.5,41.5C 46.6223,42.6302 47.9557,43.2969 49.5,43.5 Z"/></g>
<g><path style="opacity:1" fill="#e9f4f7" d="M 28.5,45.5 C 27.8333,46.1667 27.1667,46.8333 26.5,47.5C 26.44,48.0431 26.1067,48.3764 25.5,48.5C 24.4822,47.8075 23.4822,47.1408 22.5,46.5C 23.6591,45.4865 25.6591,45.1532 28.5,45.5 Z"/></g>
<g><path style="opacity:1" fill="#dbf7f7" d="M 31.5,43.5 C 32.9643,44.4054 34.2976,44.4054 35.5,43.5C 36.3382,43.8417 36.6716,44.5084 36.5,45.5C 35.1805,46.9418 33.5138,47.6085 31.5,47.5C 31.5,46.8333 31.5,46.1667 31.5,45.5C 31.5,44.8333 31.5,44.1667 31.5,43.5 Z"/></g>
<g><path style="opacity:1" fill="#e5f2fb" d="M 28.5,44.5 C 29.391,45.1098 30.391,45.4431 31.5,45.5C 31.5,46.1667 31.5,46.8333 31.5,47.5C 31.5,48.1667 31.5,48.8333 31.5,49.5C 31.1667,49.5 30.8333,49.5 30.5,49.5C 29.8166,47.8235 28.4832,47.1568 26.5,47.5C 27.1667,46.8333 27.8333,46.1667 28.5,45.5C 28.5,45.1667 28.5,44.8333 28.5,44.5 Z"/></g>
<g><path style="opacity:1" fill="#80c1da" d="M 40.5,42.5 C 40.8333,42.5 41.1667,42.5 41.5,42.5C 41.8333,42.5 42.1667,42.5 42.5,42.5C 42.5,43.1667 42.8333,43.5 43.5,43.5C 43.5,44.1667 43.8333,44.5 44.5,44.5C 43.3065,45.2719 42.3065,46.2719 41.5,47.5C 39.2188,47.9227 37.5521,47.256 36.5,45.5C 38.9726,45.9118 40.3059,44.9118 40.5,42.5 Z"/></g>
<g><path style="opacity:1" fill="#7cd2e9" d="M 44.5,44.5 C 46.0418,45.3007 47.7085,45.634 49.5,45.5C 49.5,46.8333 49.5,48.1667 49.5,49.5C 48.8333,49.5 48.1667,49.5 47.5,49.5C 46.0821,47.6921 44.0821,47.0254 41.5,47.5C 42.3065,46.2719 43.3065,45.2719 44.5,44.5 Z"/></g>
<g><path style="opacity:1" fill="#e3f5fb" d="M 5.5,43.5 C 6.16667,43.8333 6.83333,44.1667 7.5,44.5C 7.5,46.1667 7.5,47.8333 7.5,49.5C 4.83333,49.5 2.16667,49.5 -0.5,49.5C -0.5,48.8333 -0.5,48.1667 -0.5,47.5C 1.58414,48.2483 3.58414,48.2483 5.5,47.5C 6.56236,46.5754 6.56236,45.5754 5.5,44.5C 5.5,44.1667 5.5,43.8333 5.5,43.5 Z"/></g>
<g><path style="opacity:1" fill="#caeef6" d="M 7.5,43.5 C 8.5,44.1667 9.5,44.8333 10.5,45.5C 10.1667,46.8333 9.83333,48.1667 9.5,49.5C 8.83333,49.5 8.16667,49.5 7.5,49.5C 7.5,47.8333 7.5,46.1667 7.5,44.5C 7.5,44.1667 7.5,43.8333 7.5,43.5 Z"/></g>
<g><path style="opacity:1" fill="#c3eaf7" d="M 10.5,45.5 C 10.8333,45.5 11.1667,45.5 11.5,45.5C 12.4822,46.1408 13.4822,46.8075 14.5,47.5C 15.8415,45.9951 17.5082,45.3285 19.5,45.5C 19.8333,46.5 20.5,47.1667 21.5,47.5C 21.5,48.1667 21.5,48.8333 21.5,49.5C 17.5,49.5 13.5,49.5 9.5,49.5C 9.83333,48.1667 10.1667,46.8333 10.5,45.5 Z"/></g>
<g><path style="opacity:1" fill="#94d9f2" d="M 36.5,45.5 C 37.5521,47.256 39.2188,47.9227 41.5,47.5C 44.0821,47.0254 46.0821,47.6921 47.5,49.5C 42.1667,49.5 36.8333,49.5 31.5,49.5C 31.5,48.8333 31.5,48.1667 31.5,47.5C 33.5138,47.6085 35.1805,46.9418 36.5,45.5 Z"/></g>
<g><path style="opacity:1" fill="#edf9fc" d="M 22.5,46.5 C 23.4822,47.1408 24.4822,47.8075 25.5,48.5C 26.1067,48.3764 26.44,48.0431 26.5,47.5C 28.4832,47.1568 29.8166,47.8235 30.5,49.5C 27.5,49.5 24.5,49.5 21.5,49.5C 21.5,48.8333 21.5,48.1667 21.5,47.5C 22.1667,47.5 22.5,47.1667 22.5,46.5 Z"/></g>
</svg>
